<mxfile host="Electron" modified="2024-06-10T11:43:15.975Z" agent="Mozilla/5.0 (Windows NT 10.0; Win64; x64) AppleWebKit/537.36 (KHTML, like Gecko) draw.io/23.1.5 Chrome/120.0.6099.109 Electron/28.1.0 Safari/537.36" etag="_mEmlhJtTu5SYyt6QAw5" version="23.1.5" type="device">
  <diagram name="Страница — 1" id="vxvkYbs0Rh379bcGDveC">
    <mxGraphModel dx="1434" dy="884" grid="1" gridSize="10" guides="1" tooltips="1" connect="1" arrows="1" fold="1" page="1" pageScale="1" pageWidth="827" pageHeight="1169" math="0" shadow="0">
      <root>
        <mxCell id="0" />
        <mxCell id="1" parent="0" />
        <mxCell id="8p3fq4H3RUDNB1t1E8xN-1" value="Клиент: Браузер" style="verticalAlign=top;align=left;spacingTop=8;spacingLeft=2;spacingRight=12;shape=cube;size=10;direction=south;fontStyle=4;html=1;whiteSpace=wrap;" parent="1" vertex="1">
          <mxGeometry x="60" y="130" width="180" height="120" as="geometry" />
        </mxCell>
        <mxCell id="8p3fq4H3RUDNB1t1E8xN-2" value="Модуль администратора" style="shape=module;align=left;spacingLeft=20;align=center;verticalAlign=top;whiteSpace=wrap;html=1;" parent="1" vertex="1">
          <mxGeometry x="80" y="170" width="130" height="50" as="geometry" />
        </mxCell>
        <mxCell id="8p3fq4H3RUDNB1t1E8xN-3" value="Сервер приложения" style="verticalAlign=top;align=left;spacingTop=8;spacingLeft=2;spacingRight=12;shape=cube;size=10;direction=south;fontStyle=4;html=1;whiteSpace=wrap;" parent="1" vertex="1">
          <mxGeometry x="310" y="130" width="460" height="320" as="geometry" />
        </mxCell>
        <mxCell id="8p3fq4H3RUDNB1t1E8xN-8" style="edgeStyle=orthogonalEdgeStyle;rounded=0;orthogonalLoop=1;jettySize=auto;html=1;entryX=0.261;entryY=1.022;entryDx=0;entryDy=0;entryPerimeter=0;endArrow=none;endFill=0;" parent="1" edge="1">
          <mxGeometry relative="1" as="geometry">
            <mxPoint x="240" y="160.02999999999997" as="sourcePoint" />
            <mxPoint x="306.03999999999996" y="160.02999999999997" as="targetPoint" />
          </mxGeometry>
        </mxCell>
        <mxCell id="8p3fq4H3RUDNB1t1E8xN-9" value="HTTPS" style="text;html=1;align=center;verticalAlign=middle;whiteSpace=wrap;rounded=0;" parent="1" vertex="1">
          <mxGeometry x="240" y="130" width="60" height="30" as="geometry" />
        </mxCell>
        <mxCell id="8p3fq4H3RUDNB1t1E8xN-10" value="База данных: SQL SERVER" style="verticalAlign=top;align=left;spacingTop=8;spacingLeft=2;spacingRight=12;shape=cube;size=10;direction=south;fontStyle=4;html=1;whiteSpace=wrap;" parent="1" vertex="1">
          <mxGeometry x="570" y="170" width="180" height="150" as="geometry" />
        </mxCell>
        <mxCell id="8p3fq4H3RUDNB1t1E8xN-13" value="Студенты" style="shape=module;align=left;spacingLeft=20;align=center;verticalAlign=top;whiteSpace=wrap;html=1;" parent="1" vertex="1">
          <mxGeometry x="600" y="205" width="110" height="30" as="geometry" />
        </mxCell>
        <mxCell id="8p3fq4H3RUDNB1t1E8xN-16" value="Планировщик задач" style="verticalAlign=top;align=left;spacingTop=8;spacingLeft=2;spacingRight=12;shape=cube;size=10;direction=south;fontStyle=4;html=1;whiteSpace=wrap;" parent="1" vertex="1">
          <mxGeometry x="570" y="330" width="180" height="100" as="geometry" />
        </mxCell>
        <mxCell id="8p3fq4H3RUDNB1t1E8xN-17" value="Менеджер курсов" style="shape=module;align=left;spacingLeft=20;align=center;verticalAlign=top;whiteSpace=wrap;html=1;" parent="1" vertex="1">
          <mxGeometry x="610" y="370" width="100" height="50" as="geometry" />
        </mxCell>
        <mxCell id="MeYlm53aTYEyuxcs79q5-4" value="Логика приложения" style="verticalAlign=top;align=left;spacingTop=8;spacingLeft=2;spacingRight=12;shape=cube;size=10;direction=south;fontStyle=4;html=1;whiteSpace=wrap;" parent="1" vertex="1">
          <mxGeometry x="370" y="170" width="180" height="260" as="geometry" />
        </mxCell>
        <mxCell id="MeYlm53aTYEyuxcs79q5-5" value="ASP.NET" style="shape=module;align=left;spacingLeft=20;align=center;verticalAlign=top;whiteSpace=wrap;html=1;" parent="1" vertex="1">
          <mxGeometry x="390" y="300" width="100" height="50" as="geometry" />
        </mxCell>
        <mxCell id="MeYlm53aTYEyuxcs79q5-6" value="C#" style="shape=module;align=left;spacingLeft=20;align=center;verticalAlign=top;whiteSpace=wrap;html=1;" parent="1" vertex="1">
          <mxGeometry x="390" y="365" width="100" height="50" as="geometry" />
        </mxCell>
        <mxCell id="MeYlm53aTYEyuxcs79q5-7" value="Курсы" style="shape=module;align=left;spacingLeft=20;align=center;verticalAlign=top;whiteSpace=wrap;html=1;" parent="1" vertex="1">
          <mxGeometry x="600" y="245" width="110" height="30" as="geometry" />
        </mxCell>
        <mxCell id="MeYlm53aTYEyuxcs79q5-8" value="Преподаватели" style="shape=module;align=left;spacingLeft=20;align=center;verticalAlign=top;whiteSpace=wrap;html=1;" parent="1" vertex="1">
          <mxGeometry x="600" y="285" width="110" height="30" as="geometry" />
        </mxCell>
        <mxCell id="MeYlm53aTYEyuxcs79q5-9" value="EF Core" style="shape=module;align=left;spacingLeft=20;align=center;verticalAlign=top;whiteSpace=wrap;html=1;" parent="1" vertex="1">
          <mxGeometry x="390" y="235" width="100" height="50" as="geometry" />
        </mxCell>
        <mxCell id="jNZRR9i-kx3hC3yU-GTe-3" style="rounded=0;orthogonalLoop=1;jettySize=auto;html=1;endArrow=none;endFill=0;" edge="1" parent="1">
          <mxGeometry relative="1" as="geometry">
            <mxPoint x="240" y="365.0046461321419" as="sourcePoint" />
            <mxPoint x="310" y="365" as="targetPoint" />
          </mxGeometry>
        </mxCell>
        <mxCell id="jNZRR9i-kx3hC3yU-GTe-1" value="Клиент: Браузер" style="verticalAlign=top;align=left;spacingTop=8;spacingLeft=2;spacingRight=12;shape=cube;size=10;direction=south;fontStyle=4;html=1;whiteSpace=wrap;" vertex="1" parent="1">
          <mxGeometry x="60" y="330" width="180" height="120" as="geometry" />
        </mxCell>
        <mxCell id="jNZRR9i-kx3hC3yU-GTe-2" value="Клиентская чать&lt;div&gt;&lt;br/&gt;&lt;/div&gt;" style="shape=module;align=left;spacingLeft=20;align=center;verticalAlign=top;whiteSpace=wrap;html=1;" vertex="1" parent="1">
          <mxGeometry x="80" y="370" width="130" height="50" as="geometry" />
        </mxCell>
        <mxCell id="jNZRR9i-kx3hC3yU-GTe-4" value="HTTPS" style="text;html=1;align=center;verticalAlign=middle;whiteSpace=wrap;rounded=0;" vertex="1" parent="1">
          <mxGeometry x="240" y="335" width="60" height="30" as="geometry" />
        </mxCell>
      </root>
    </mxGraphModel>
  </diagram>
</mxfile>
